<svg  viewBox="0 0 500 500" fill="none" xmlns="http://www.w3.org/2000/svg">
<path d="M250.391 262.312C247.62 262.312 244.411 262.203 240.766 261.984C237.12 261.693 233.438 261.255 229.719 260.672C229.865 262.568 229.974 264.464 230.047 266.359C230.12 268.255 230.156 270.115 230.156 271.938C230.156 280.177 229.427 287.688 227.969 294.469C226.51 301.25 224.323 307.047 221.406 311.859C218.49 316.672 214.844 320.391 210.469 323.016C206.167 325.714 201.172 327.062 195.484 327.062C191.182 327.062 186.333 326.26 180.938 324.656C175.615 323.052 169.635 320.172 163 316.016L165.188 312.516C170.875 316.016 176.234 318.604 181.266 320.281C186.37 321.958 191.109 322.797 195.484 322.797C200.224 322.797 204.125 321.922 207.188 320.172C210.25 318.495 212.656 316.234 214.406 313.391C216.229 310.62 217.469 307.448 218.125 303.875C218.854 300.302 219.219 296.656 219.219 292.938C219.219 287.76 218.854 282.219 218.125 276.312C217.469 270.406 216.849 264.172 216.266 257.609C212.911 256.443 210.177 255.094 208.062 253.562C205.948 251.958 204.891 250.099 204.891 247.984C204.891 245.943 205.839 244.193 207.734 242.734C209.703 241.203 212.255 240.036 215.391 239.234C215.391 232.964 215.865 226.839 216.812 220.859C217.76 214.807 218.927 209.12 220.312 203.797C221.771 198.474 223.302 193.552 224.906 189.031C226.583 184.51 228.151 180.646 229.609 177.438C231.068 174.156 232.271 171.604 233.219 169.781C234.24 167.958 234.786 167.047 234.859 167.047L238.688 168.906C238.688 168.979 238.104 170.438 236.938 173.281C235.771 176.052 234.495 179.99 233.109 185.094C231.724 190.198 230.448 196.323 229.281 203.469C228.115 210.615 227.531 218.562 227.531 227.312C227.531 228.99 227.531 230.776 227.531 232.672C227.531 234.495 227.604 236.318 227.75 238.141C235.844 238.505 242.698 240.328 248.312 243.609C254 246.891 258.922 251.411 263.078 257.172C269.349 255.859 275.365 253.635 281.125 250.5C286.958 247.292 292.062 243.245 296.438 238.359C300.885 233.474 304.422 227.786 307.047 221.297C309.745 214.807 311.094 207.625 311.094 199.75C311.094 193.479 310.146 187.901 308.25 183.016C306.427 178.057 303.948 173.755 300.812 170.109C297.75 166.391 294.177 163.255 290.094 160.703C286.083 158.151 281.927 156.109 277.625 154.578C273.323 152.974 269.021 151.844 264.719 151.188C260.49 150.458 256.589 150.094 253.016 150.094C242.953 150.094 233.875 150.859 225.781 152.391C217.76 153.922 210.651 155.854 204.453 158.188C198.255 160.521 192.896 163.036 188.375 165.734C183.927 168.432 180.245 170.948 177.328 173.281C174.411 175.615 172.26 177.583 170.875 179.188C169.49 180.792 168.797 181.594 168.797 181.594L165.188 179.188C165.406 178.969 166.281 177.984 167.812 176.234C169.344 174.484 171.604 172.406 174.594 170C177.656 167.521 181.484 164.859 186.078 162.016C190.745 159.172 196.286 156.583 202.703 154.25C209.193 151.844 216.594 149.839 224.906 148.234C233.219 146.63 242.589 145.828 253.016 145.828C258.995 145.828 264.938 146.302 270.844 147.25C276.75 148.125 282.365 149.51 287.688 151.406C293.01 153.229 297.932 155.599 302.453 158.516C307.047 161.432 310.984 164.896 314.266 168.906C317.62 172.844 320.245 177.401 322.141 182.578C324.036 187.682 324.984 193.406 324.984 199.75C324.984 208.865 323.307 216.958 319.953 224.031C316.672 231.031 312.26 237.083 306.719 242.188C301.25 247.219 294.943 251.339 287.797 254.547C280.724 257.682 273.396 259.906 265.812 261.219C268.365 265.156 270.589 269.531 272.484 274.344C274.745 279.74 276.786 285.354 278.609 291.188C280.505 296.948 282.474 302.599 284.516 308.141C286.557 313.682 288.781 318.932 291.188 323.891C293.667 328.849 296.547 333.188 299.828 336.906C303.182 340.698 307.083 343.688 311.531 345.875C316.052 348.062 321.411 349.156 327.609 349.156C331.984 349.156 336.432 348.172 340.953 346.203C345.547 344.307 350.214 341.208 354.953 336.906L357.688 339.969C354.99 342.594 352.219 345.073 349.375 347.406C346.531 349.812 343.542 351.891 340.406 353.641C337.344 355.464 334.099 356.885 330.672 357.906C327.245 359 323.562 359.547 319.625 359.547C313.719 359.547 308.578 358.708 304.203 357.031C299.901 355.427 296.146 353.13 292.938 350.141C289.729 347.224 287.031 343.76 284.844 339.75C282.656 335.74 280.76 331.365 279.156 326.625C277.552 321.958 276.13 316.964 274.891 311.641C273.724 306.391 272.557 301.068 271.391 295.672C269.932 289.036 268.292 282.875 266.469 277.188C264.719 271.5 262.495 266.396 259.797 261.875C258.193 262.094 256.589 262.24 254.984 262.312C253.453 262.312 251.922 262.312 250.391 262.312ZM228.188 242.406C228.333 244.74 228.516 247.146 228.734 249.625C229.026 252.031 229.281 254.401 229.5 256.734C232.271 257.318 235.443 257.719 239.016 257.938C242.589 258.156 246.526 258.266 250.828 258.266C251.849 258.266 252.906 258.266 254 258.266C255.094 258.266 256.188 258.193 257.281 258.047C253.927 253.453 249.917 249.807 245.25 247.109C240.656 244.339 234.969 242.771 228.188 242.406ZM215.828 252.906C215.682 251.448 215.573 249.953 215.5 248.422C215.427 246.818 215.391 245.25 215.391 243.719C213.495 244.156 211.964 244.74 210.797 245.469C209.703 246.198 209.156 246.964 209.156 247.766C209.156 248.349 209.667 249.115 210.688 250.062C211.781 250.938 213.495 251.885 215.828 252.906Z" fill="white"/>
<path d="M490 250C490 258.371 489.57 264.504 488.848 268.805C488.75 269.387 488.65 269.914 488.55 270.39C488.197 270.061 487.822 269.7 487.425 269.303C481.872 263.749 474.624 253.904 465.59 240.531C460.432 232.895 454.931 224.477 449.011 215.417C444.619 208.696 439.996 201.621 435.112 194.252C412.464 160.081 385.06 120.9 354.383 90.2205C323.949 59.7847 288.61 36 250 36C211.39 36 176.051 59.7847 145.617 90.2205C114.94 120.9 87.536 160.081 64.8879 194.252C60.0036 201.621 55.381 208.696 50.9889 215.417C45.0691 224.476 39.568 232.895 34.4096 240.531C25.376 253.904 18.1281 263.749 12.5746 269.303C12.1783 269.7 11.8034 270.061 11.4496 270.39C11.3501 269.914 11.2503 269.387 11.1525 268.805C10.4297 264.504 10 258.371 10 250C10 117.452 117.452 10 250 10C382.548 10 490 117.452 490 250Z" stroke="white" stroke-width="20"/>
<path d="M490 250C490 382.548 382.548 490 250 490C117.452 490 10 382.548 10 250C10 241.631 10.4295 235.48 11.1538 231.147C11.2778 230.406 11.4054 229.751 11.5316 229.175C11.8878 229.496 12.2665 229.851 12.668 230.242C18.1878 235.62 25.416 245.253 34.4502 258.421C39.7224 266.105 45.3626 274.619 51.4428 283.797C55.7105 290.239 60.195 297.008 64.921 304.047C87.5674 337.778 114.976 376.519 145.656 406.865C176.102 436.979 211.43 460.5 250 460.5C288.57 460.5 323.898 436.979 354.344 406.865C385.024 376.519 412.433 337.778 435.079 304.047C439.805 297.008 444.289 290.239 448.557 283.797C454.637 274.619 460.278 266.105 465.55 258.421C474.584 245.253 481.812 235.62 487.332 230.242C487.733 229.851 488.112 229.496 488.468 229.175C488.595 229.751 488.722 230.406 488.846 231.147C489.571 235.48 490 241.631 490 250Z" stroke="white" stroke-width="20"/>
</svg>
