<svg  viewBox="0 0 500 500" fill="none" xmlns="http://www.w3.org/2000/svg">
<path d="M250.391 262.312C247.62 262.312 244.411 262.203 240.766 261.984C237.12 261.693 233.438 261.255 229.719 260.672C229.865 262.568 229.974 264.464 230.047 266.359C230.12 268.255 230.156 270.115 230.156 271.938C230.156 280.177 229.427 287.688 227.969 294.469C226.51 301.25 224.323 307.047 221.406 311.859C218.49 316.672 214.844 320.391 210.469 323.016C206.167 325.714 201.172 327.062 195.484 327.062C191.182 327.062 186.333 326.26 180.938 324.656C175.615 323.052 169.635 320.172 163 316.016L165.188 312.516C170.875 316.016 176.234 318.604 181.266 320.281C186.37 321.958 191.109 322.797 195.484 322.797C200.224 322.797 204.125 321.922 207.188 320.172C210.25 318.495 212.656 316.234 214.406 313.391C216.229 310.62 217.469 307.448 218.125 303.875C218.854 300.302 219.219 296.656 219.219 292.938C219.219 287.76 218.854 282.219 218.125 276.312C217.469 270.406 216.849 264.172 216.266 257.609C212.911 256.443 210.177 255.094 208.062 253.562C205.948 251.958 204.891 250.099 204.891 247.984C204.891 245.943 205.839 244.193 207.734 242.734C209.703 241.203 212.255 240.036 215.391 239.234C215.391 232.964 215.865 226.839 216.812 220.859C217.76 214.807 218.927 209.12 220.312 203.797C221.771 198.474 223.302 193.552 224.906 189.031C226.583 184.51 228.151 180.646 229.609 177.438C231.068 174.156 232.271 171.604 233.219 169.781C234.24 167.958 234.786 167.047 234.859 167.047L238.688 168.906C238.688 168.979 238.104 170.438 236.938 173.281C235.771 176.052 234.495 179.99 233.109 185.094C231.724 190.198 230.448 196.323 229.281 203.469C228.115 210.615 227.531 218.562 227.531 227.312C227.531 228.99 227.531 230.776 227.531 232.672C227.531 234.495 227.604 236.318 227.75 238.141C235.844 238.505 242.698 240.328 248.312 243.609C254 246.891 258.922 251.411 263.078 257.172C269.349 255.859 275.365 253.635 281.125 250.5C286.958 247.292 292.062 243.245 296.438 238.359C300.885 233.474 304.422 227.786 307.047 221.297C309.745 214.807 311.094 207.625 311.094 199.75C311.094 193.479 310.146 187.901 308.25 183.016C306.427 178.057 303.948 173.755 300.812 170.109C297.75 166.391 294.177 163.255 290.094 160.703C286.083 158.151 281.927 156.109 277.625 154.578C273.323 152.974 269.021 151.844 264.719 151.188C260.49 150.458 256.589 150.094 253.016 150.094C242.953 150.094 233.875 150.859 225.781 152.391C217.76 153.922 210.651 155.854 204.453 158.188C198.255 160.521 192.896 163.036 188.375 165.734C183.927 168.432 180.245 170.948 177.328 173.281C174.411 175.615 172.26 177.583 170.875 179.188C169.49 180.792 168.797 181.594 168.797 181.594L165.188 179.188C165.406 178.969 166.281 177.984 167.812 176.234C169.344 174.484 171.604 172.406 174.594 170C177.656 167.521 181.484 164.859 186.078 162.016C190.745 159.172 196.286 156.583 202.703 154.25C209.193 151.844 216.594 149.839 224.906 148.234C233.219 146.63 242.589 145.828 253.016 145.828C258.995 145.828 264.938 146.302 270.844 147.25C276.75 148.125 282.365 149.51 287.688 151.406C293.01 153.229 297.932 155.599 302.453 158.516C307.047 161.432 310.984 164.896 314.266 168.906C317.62 172.844 320.245 177.401 322.141 182.578C324.036 187.682 324.984 193.406 324.984 199.75C324.984 208.865 323.307 216.958 319.953 224.031C316.672 231.031 312.26 237.083 306.719 242.188C301.25 247.219 294.943 251.339 287.797 254.547C280.724 257.682 273.396 259.906 265.812 261.219C268.365 265.156 270.589 269.531 272.484 274.344C274.745 279.74 276.786 285.354 278.609 291.188C280.505 296.948 282.474 302.599 284.516 308.141C286.557 313.682 288.781 318.932 291.188 323.891C293.667 328.849 296.547 333.188 299.828 336.906C303.182 340.698 307.083 343.688 311.531 345.875C316.052 348.062 321.411 349.156 327.609 349.156C331.984 349.156 336.432 348.172 340.953 346.203C345.547 344.307 350.214 341.208 354.953 336.906L357.688 339.969C354.99 342.594 352.219 345.073 349.375 347.406C346.531 349.812 343.542 351.891 340.406 353.641C337.344 355.464 334.099 356.885 330.672 357.906C327.245 359 323.562 359.547 319.625 359.547C313.719 359.547 308.578 358.708 304.203 357.031C299.901 355.427 296.146 353.13 292.938 350.141C289.729 347.224 287.031 343.76 284.844 339.75C282.656 335.74 280.76 331.365 279.156 326.625C277.552 321.958 276.13 316.964 274.891 311.641C273.724 306.391 272.557 301.068 271.391 295.672C269.932 289.036 268.292 282.875 266.469 277.188C264.719 271.5 262.495 266.396 259.797 261.875C258.193 262.094 256.589 262.24 254.984 262.312C253.453 262.312 251.922 262.312 250.391 262.312ZM228.188 242.406C228.333 244.74 228.516 247.146 228.734 249.625C229.026 252.031 229.281 254.401 229.5 256.734C232.271 257.318 235.443 257.719 239.016 257.938C242.589 258.156 246.526 258.266 250.828 258.266C251.849 258.266 252.906 258.266 254 258.266C255.094 258.266 256.188 258.193 257.281 258.047C253.927 253.453 249.917 249.807 245.25 247.109C240.656 244.339 234.969 242.771 228.188 242.406ZM215.828 252.906C215.682 251.448 215.573 249.953 215.5 248.422C215.427 246.818 215.391 245.25 215.391 243.719C213.495 244.156 211.964 244.74 210.797 245.469C209.703 246.198 209.156 246.964 209.156 247.766C209.156 248.349 209.667 249.115 210.688 250.062C211.781 250.938 213.495 251.885 215.828 252.906Z" fill="white"/>
<path d="M494.5 250C494.5 258.487 494.067 264.9 493.285 269.551C492.47 274.404 491.395 276.543 490.756 277.283C490.752 277.289 490.747 277.294 490.743 277.299C490.681 277.284 490.604 277.262 490.511 277.231C489.329 276.834 487.263 275.506 484.243 272.485C478.342 266.583 470.873 256.391 461.862 243.05C456.695 235.401 451.153 226.921 445.209 217.826C440.817 211.104 436.204 204.046 431.361 196.738C408.725 162.586 381.532 123.736 351.201 93.4023C321.003 63.2024 286.769 40.5 250 40.5C213.231 40.5 178.997 63.2024 148.799 93.4023C118.468 123.736 91.2746 162.586 68.6388 196.738C63.7955 204.046 59.183 211.104 54.7903 217.826C48.8467 226.922 43.3054 235.401 38.1385 243.05C29.1266 256.391 21.6576 266.583 15.7568 272.485C12.7366 275.506 10.6715 276.834 9.48936 277.231C9.39578 277.262 9.31884 277.284 9.2572 277.299C9.25278 277.294 9.24825 277.289 9.24361 277.283C8.60473 276.543 7.53021 274.404 6.71467 269.551C5.9331 264.9 5.5 258.487 5.5 250C5.5 114.966 114.966 5.5 250 5.5C385.034 5.5 494.5 114.966 494.5 250ZM9.05775 277.332C9.05783 277.331 9.06164 277.331 9.06901 277.332C9.06134 277.332 9.05766 277.332 9.05775 277.332Z" stroke="white" stroke-width="11"/>
<path d="M494.5 250C494.5 385.034 385.034 494.5 250 494.5C114.966 494.5 5.5 385.034 5.5 250C5.5 241.514 5.93297 235.085 6.71542 230.405C7.52984 225.534 8.60774 223.322 9.28674 222.516C9.31774 222.479 9.34513 222.448 9.36887 222.423C9.43168 222.436 9.51437 222.456 9.6192 222.488C10.7612 222.84 12.7971 224.085 15.8082 227.019C21.6905 232.75 29.1486 242.74 38.1609 255.875C43.4452 263.577 49.1269 272.153 55.2303 281.366C59.497 287.806 63.9698 294.558 68.657 301.539C91.2918 335.252 118.487 373.663 148.821 403.666C179.025 433.541 213.254 456 250 456C286.746 456 320.975 433.541 351.179 403.666C381.513 373.663 408.708 335.252 431.343 301.539C436.03 294.558 440.503 287.806 444.77 281.366C450.873 272.153 456.555 263.577 461.839 255.875C470.851 242.74 478.309 232.75 484.192 227.019C487.203 224.085 489.239 222.84 490.381 222.488C490.486 222.456 490.568 222.436 490.631 222.423C490.655 222.448 490.682 222.479 490.713 222.516C491.392 223.322 492.47 225.534 493.285 230.405C494.067 235.085 494.5 241.514 494.5 250ZM9.48301 222.318C9.48302 222.318 9.48026 222.32 9.47471 222.323C9.48022 222.319 9.483 222.317 9.48301 222.318ZM9.22237 222.403C9.21407 222.404 9.20971 222.404 9.20961 222.403C9.20951 222.403 9.21365 222.403 9.22237 222.403ZM490.79 222.403C490.79 222.404 490.786 222.404 490.778 222.403C490.786 222.403 490.79 222.403 490.79 222.403ZM490.525 222.323C490.52 222.32 490.517 222.318 490.517 222.318C490.517 222.317 490.52 222.319 490.525 222.323Z" stroke="white" stroke-width="11"/>
</svg>
