<svg width="31" height="40" viewBox="0 0 31 40" fill="none" aria-label="This site logo"  fill="none" xmlns="http://www.w3.org/2000/svg">
<path d="M194.676 0C131.638 0 94.5568 0 31.519 0C29.6649 0 29.6649 0 27.8108 0C27.8108 0 27.8108 0 25.9567 0C11.1243 0 0 11.3674 0 26.5241C0 41.6806 11.1243 51.1534 25.9567 51.1534C27.8108 51.1534 29.6649 51.1534 31.519 51.1534C94.5568 51.1534 133.492 51.1534 196.53 51.1534C242.881 51.1534 278.108 96.6233 266.984 142.093C259.567 176.196 229.902 200.825 194.676 200.825C165.011 200.825 135.347 200.825 105.682 200.825C103.828 200.825 101.973 200.825 101.973 200.825C87.1406 200.825 76.0163 212.192 76.0163 227.349C76.0163 242.505 87.1406 251.979 101.973 251.979H103.828C135.347 251.979 166.865 251.979 198.383 251.979C261.421 250.084 311.482 202.719 318.898 138.303C326.314 64.4155 268.838 0 194.676 0Z" fill="white"/>
<path d="M220.633 125.041C220.633 109.885 209.508 100.412 194.676 100.412C131.638 100.412 68.6001 100.412 5.56211 100.412C3.70806 100.412 3.70806 100.412 1.854 100.412C1.854 197.035 1.854 291.765 1.854 388.387C1.854 403.544 12.9784 414.911 27.8108 414.911C42.6432 414.911 51.9135 403.544 51.9135 388.387C51.9135 308.816 51.9135 231.138 51.9135 151.565C53.7675 151.565 55.6216 151.565 57.4757 151.565C103.827 151.565 150.178 151.565 196.53 151.565C209.508 151.565 218.779 140.198 220.633 125.041Z" fill="white"/>
<path d="M259.568 299.343C254.006 286.081 239.173 278.504 226.195 284.187C213.216 289.871 207.654 305.028 215.07 318.289C231.758 346.708 242.881 367.549 259.568 395.966C265.13 411.123 279.963 416.807 292.94 413.018C305.919 407.335 311.482 394.073 307.773 378.916C289.233 352.392 274.4 325.867 259.568 299.343Z" fill="#673AB7"/>
</svg>
