<svg width="31" height="40" viewBox="0 0 31 40" fill="none" aria-label="This site logo" xmlns="http://www.w3.org/2000/svg">
    <path d="M18.8592 0C12.7524 0 9.16019 0 3.0534 0C2.87379 0 2.87379 0 2.69417 0C2.69417 0 2.69417 0 2.51456 0C1.07767 0 0 1.09302 0 2.55039C0 4.00775 1.07767 4.9186 2.51456 4.9186C2.69417 4.9186 2.87379 4.9186 3.0534 4.9186C9.16019 4.9186 12.932 4.9186 19.0388 4.9186C23.5291 4.9186 26.9417 9.2907 25.8641 13.6628C25.1456 16.9419 22.2718 19.3101 18.8592 19.3101C15.9854 19.3101 13.1117 19.3101 10.2379 19.3101C10.0583 19.3101 9.87864 19.3101 9.87864 19.3101C8.44175 19.3101 7.36408 20.4031 7.36408 21.8605C7.36408 23.3178 8.44175 24.2287 9.87864 24.2287H10.0583C13.1117 24.2287 16.165 24.2287 19.2184 24.2287C25.3252 24.0465 30.1748 19.4922 30.8932 13.2984C31.6117 6.1938 26.0437 0 18.8592 0Z"
          fill="white"/>
    <path d="M21.3738 12.0232C21.3738 10.5659 20.2961 9.65503 18.8592 9.65503C12.7524 9.65503 6.64562 9.65503 0.538819 9.65503C0.359208 9.65503 0.359208 9.65503 0.179596 9.65503C0.179596 18.9457 0.179596 28.0543 0.179596 37.3449C0.179596 38.8023 1.25727 39.8953 2.69416 39.8953C4.13105 39.8953 5.02911 38.8023 5.02911 37.3449C5.02911 29.6938 5.02911 22.2248 5.02911 14.5736C5.20872 14.5736 5.38833 14.5736 5.56795 14.5736C10.0582 14.5736 14.5485 14.5736 19.0388 14.5736C20.2961 14.5736 21.1942 13.4806 21.3738 12.0232Z"
          fill="white"/>
    <path d="M25.1456 28.783C24.6068 27.5078 23.1699 26.7792 21.9126 27.3257C20.6553 27.8722 20.1165 29.3296 20.8349 30.6047C22.4515 33.3373 23.5291 35.3412 25.1456 38.0737C25.6845 39.5311 27.1214 40.0776 28.3786 39.7133C29.6359 39.1668 30.1748 37.8916 29.8155 36.4342C28.0194 33.8838 26.5825 31.3334 25.1456 28.783Z"
          fill="#00F7A2"/>
</svg>
