<svg width="512" height="512" viewBox="0 0 512 512" fill="none" xmlns="http://www.w3.org/2000/svg">
<rect width="512" height="512" fill="black"/>
<path d="M290.676 48C227.638 48 190.557 48 127.519 48C125.665 48 125.665 48 123.811 48C123.811 48 123.811 48 121.957 48C107.124 48 96 59.3674 96 74.5241C96 89.6806 107.124 99.1534 121.957 99.1534C123.811 99.1534 125.665 99.1534 127.519 99.1534C190.557 99.1534 229.492 99.1534 292.53 99.1534C338.881 99.1534 374.108 144.623 362.984 190.093C355.567 224.196 325.902 248.825 290.676 248.825C261.011 248.825 231.347 248.825 201.682 248.825C199.828 248.825 197.973 248.825 197.973 248.825C183.141 248.825 172.016 260.192 172.016 275.349C172.016 290.505 183.141 299.979 197.973 299.979H199.828C231.347 299.979 262.865 299.979 294.383 299.979C357.421 298.084 407.482 250.719 414.898 186.303C422.314 112.416 364.838 48 290.676 48Z" fill="white"/>
<path d="M316.633 173.041C316.633 157.885 305.508 148.412 290.676 148.412C227.638 148.412 164.6 148.412 101.562 148.412C99.7081 148.412 99.7081 148.412 97.854 148.412C97.854 245.035 97.854 339.765 97.854 436.387C97.854 451.544 108.978 462.911 123.811 462.911C138.643 462.911 147.914 451.544 147.914 436.387C147.914 356.816 147.914 279.138 147.914 199.565C149.768 199.565 151.622 199.565 153.476 199.565C199.827 199.565 246.178 199.565 292.53 199.565C305.508 199.565 314.779 188.198 316.633 173.041Z" fill="white"/>
<path d="M355.568 347.343C350.006 334.081 335.173 326.504 322.195 332.187C309.216 337.871 303.654 353.028 311.07 366.289C327.758 394.708 338.881 415.548 355.568 443.966C361.13 459.123 375.963 464.807 388.94 461.018C401.919 455.335 407.482 442.073 403.773 426.916C385.233 400.392 370.4 373.867 355.568 347.343Z" fill="#3AB756"/>
</svg>
